<svg xmlns="http://www.w3.org/2000/svg" xmlns:xlink="http://www.w3.org/1999/xlink" width="1920" zoomAndPan="magnify" viewBox="0 0 1440 809.999993" height="1080" preserveAspectRatio="xMidYMid meet" version="1.0"><defs><clipPath id="74567016a1"><path d="M 604.800781 289.875 L 835.050781 289.875 L 835.050781 520.125 L 604.800781 520.125 Z M 604.800781 289.875 " clip-rule="nonzero"/></clipPath></defs><rect x="-144" width="1728" fill="#ffffff" y="-80.999999" height="971.999992" fill-opacity="1"/><g clip-path="url(#74567016a1)"><path fill="#5271ff" d="M 835.191406 405.070312 C 835.191406 406.957031 835.144531 408.839844 835.050781 410.722656 C 834.960938 412.605469 834.820312 414.484375 834.636719 416.363281 C 834.449219 418.238281 834.21875 420.109375 833.945312 421.972656 C 833.667969 423.835938 833.34375 425.695312 832.976562 427.542969 C 832.609375 429.394531 832.195312 431.230469 831.738281 433.058594 C 831.28125 434.890625 830.777344 436.707031 830.230469 438.507812 C 829.683594 440.3125 829.09375 442.101562 828.457031 443.878906 C 827.820312 445.652344 827.144531 447.410156 826.421875 449.152344 C 825.699219 450.894531 824.9375 452.617188 824.128906 454.324219 C 823.324219 456.027344 822.476562 457.710938 821.589844 459.371094 C 820.699219 461.035156 819.769531 462.675781 818.800781 464.292969 C 817.832031 465.910156 816.824219 467.5 815.777344 469.070312 C 814.730469 470.636719 813.644531 472.179688 812.519531 473.691406 C 811.398438 475.207031 810.238281 476.691406 809.042969 478.148438 C 807.847656 479.605469 806.617188 481.035156 805.347656 482.429688 C 804.082031 483.828125 802.785156 485.191406 801.449219 486.527344 C 800.117188 487.859375 798.753906 489.160156 797.355469 490.425781 C 795.957031 491.691406 794.53125 492.921875 793.074219 494.117188 C 791.617188 495.3125 790.132812 496.472656 788.617188 497.597656 C 787.101562 498.71875 785.5625 499.804688 783.996094 500.851562 C 782.425781 501.898438 780.835938 502.90625 779.21875 503.875 C 777.601562 504.847656 775.960938 505.773438 774.296875 506.664062 C 772.636719 507.550781 770.953125 508.398438 769.246094 509.207031 C 767.542969 510.011719 765.820312 510.777344 764.078125 511.496094 C 762.335938 512.21875 760.578125 512.898438 758.804688 513.53125 C 757.027344 514.167969 755.238281 514.757812 753.433594 515.304688 C 751.628906 515.851562 749.8125 516.355469 747.984375 516.8125 C 746.15625 517.269531 744.316406 517.683594 742.46875 518.050781 C 740.621094 518.421875 738.761719 518.742188 736.898438 519.019531 C 735.03125 519.296875 733.164062 519.527344 731.285156 519.710938 C 729.410156 519.894531 727.53125 520.035156 725.648438 520.125 C 723.765625 520.21875 721.878906 520.265625 719.996094 520.265625 C 718.109375 520.265625 716.226562 520.21875 714.34375 520.125 C 712.460938 520.035156 710.582031 519.894531 708.703125 519.710938 C 706.828125 519.527344 704.957031 519.296875 703.09375 519.019531 C 701.226562 518.742188 699.371094 518.417969 697.523438 518.050781 C 695.671875 517.683594 693.832031 517.269531 692.003906 516.8125 C 690.175781 516.355469 688.359375 515.851562 686.554688 515.304688 C 684.75 514.757812 682.960938 514.167969 681.1875 513.53125 C 679.410156 512.898438 677.652344 512.21875 675.910156 511.496094 C 674.171875 510.773438 672.445312 510.011719 670.742188 509.207031 C 669.039062 508.398438 667.355469 507.550781 665.691406 506.664062 C 664.03125 505.773438 662.390625 504.847656 660.773438 503.875 C 659.15625 502.90625 657.5625 501.898438 655.996094 500.851562 C 654.429688 499.804688 652.886719 498.71875 651.375 497.597656 C 649.859375 496.472656 648.375 495.3125 646.917969 494.117188 C 645.457031 492.921875 644.03125 491.691406 642.636719 490.425781 C 641.238281 489.160156 639.871094 487.859375 638.539062 486.527344 C 637.207031 485.191406 635.90625 483.828125 634.640625 482.429688 C 633.375 481.035156 632.144531 479.605469 630.949219 478.148438 C 629.753906 476.691406 628.59375 475.207031 627.46875 473.691406 C 626.347656 472.179688 625.261719 470.636719 624.214844 469.070312 C 623.167969 467.5 622.15625 465.910156 621.1875 464.292969 C 620.21875 462.675781 619.289062 461.035156 618.402344 459.371094 C 617.511719 457.710938 616.664062 456.027344 615.859375 454.324219 C 615.054688 452.617188 614.289062 450.894531 613.570312 449.152344 C 612.847656 447.410156 612.167969 445.652344 611.535156 443.878906 C 610.898438 442.101562 610.308594 440.3125 609.761719 438.507812 C 609.214844 436.707031 608.710938 434.890625 608.253906 433.058594 C 607.792969 431.230469 607.382812 429.394531 607.011719 427.542969 C 606.644531 425.695312 606.324219 423.835938 606.046875 421.972656 C 605.769531 420.109375 605.539062 418.238281 605.355469 416.363281 C 605.167969 414.484375 605.03125 412.605469 604.9375 410.722656 C 604.847656 408.839844 604.800781 406.957031 604.800781 405.070312 C 604.800781 403.183594 604.847656 401.300781 604.9375 399.417969 C 605.03125 397.535156 605.167969 395.65625 605.355469 393.777344 C 605.539062 391.902344 605.769531 390.03125 606.046875 388.167969 C 606.324219 386.304688 606.644531 384.445312 607.011719 382.597656 C 607.382812 380.746094 607.792969 378.910156 608.253906 377.082031 C 608.710938 375.25 609.214844 373.433594 609.761719 371.632812 C 610.308594 369.828125 610.898438 368.039062 611.535156 366.261719 C 612.167969 364.488281 612.847656 362.730469 613.570312 360.988281 C 614.289062 359.246094 615.054688 357.523438 615.859375 355.816406 C 616.664062 354.113281 617.511719 352.429688 618.402344 350.769531 C 619.289062 349.105469 620.21875 347.464844 621.1875 345.847656 C 622.15625 344.230469 623.167969 342.640625 624.214844 341.070312 C 625.261719 339.503906 626.347656 337.960938 627.46875 336.449219 C 628.59375 334.933594 629.753906 333.449219 630.949219 331.992188 C 632.144531 330.535156 633.375 329.105469 634.640625 327.710938 C 635.90625 326.3125 637.207031 324.949219 638.539062 323.613281 C 639.871094 322.28125 641.238281 320.980469 642.636719 319.714844 C 644.03125 318.449219 645.457031 317.21875 646.917969 316.023438 C 648.375 314.828125 649.859375 313.667969 651.375 312.542969 C 652.886719 311.421875 654.429688 310.335938 655.996094 309.289062 C 657.5625 308.242188 659.15625 307.234375 660.773438 306.265625 C 662.390625 305.292969 664.03125 304.367188 665.691406 303.476562 C 667.355469 302.589844 669.039062 301.742188 670.742188 300.933594 C 672.445312 300.128906 674.171875 299.363281 675.910156 298.644531 C 677.652344 297.921875 679.410156 297.242188 681.1875 296.609375 C 682.960938 295.972656 684.75 295.382812 686.554688 294.835938 C 688.359375 294.289062 690.175781 293.785156 692.003906 293.328125 C 693.832031 292.871094 695.671875 292.457031 697.523438 292.089844 C 699.371094 291.71875 701.226562 291.398438 703.09375 291.121094 C 704.957031 290.84375 706.828125 290.613281 708.703125 290.429688 C 710.582031 290.246094 712.460938 290.105469 714.34375 290.015625 C 716.226562 289.921875 718.109375 289.875 719.996094 289.875 C 721.878906 289.875 723.765625 289.921875 725.648438 290.015625 C 727.53125 290.105469 729.410156 290.246094 731.285156 290.429688 C 733.164062 290.613281 735.03125 290.84375 736.898438 291.121094 C 738.761719 291.398438 740.621094 291.71875 742.46875 292.089844 C 744.316406 292.457031 746.15625 292.871094 747.984375 293.328125 C 749.8125 293.785156 751.628906 294.289062 753.433594 294.835938 C 755.238281 295.382812 757.027344 295.972656 758.804688 296.609375 C 760.578125 297.242188 762.335938 297.921875 764.078125 298.644531 C 765.820312 299.363281 767.542969 300.128906 769.246094 300.933594 C 770.953125 301.742188 772.636719 302.589844 774.296875 303.476562 C 775.960938 304.367188 777.601562 305.292969 779.21875 306.265625 C 780.835938 307.234375 782.425781 308.242188 783.996094 309.289062 C 785.5625 310.335938 787.101562 311.421875 788.617188 312.542969 C 790.132812 313.667969 791.617188 314.828125 793.074219 316.023438 C 794.53125 317.21875 795.957031 318.449219 797.355469 319.714844 C 798.753906 320.980469 800.117188 322.28125 801.449219 323.613281 C 802.785156 324.949219 804.082031 326.3125 805.347656 327.710938 C 806.617188 329.105469 807.847656 330.535156 809.042969 331.992188 C 810.238281 333.449219 811.398438 334.933594 812.519531 336.449219 C 813.644531 337.960938 814.730469 339.503906 815.777344 341.070312 C 816.824219 342.640625 817.832031 344.230469 818.800781 345.847656 C 819.769531 347.464844 820.699219 349.105469 821.589844 350.769531 C 822.476562 352.429688 823.324219 354.113281 824.128906 355.816406 C 824.9375 357.523438 825.699219 359.246094 826.421875 360.988281 C 827.144531 362.730469 827.820312 364.488281 828.457031 366.261719 C 829.09375 368.039062 829.683594 369.828125 830.230469 371.632812 C 830.777344 373.433594 831.28125 375.25 831.738281 377.082031 C 832.195312 378.910156 832.609375 380.746094 832.976562 382.597656 C 833.34375 384.445312 833.667969 386.304688 833.945312 388.167969 C 834.21875 390.03125 834.449219 391.902344 834.636719 393.777344 C 834.820312 395.65625 834.960938 397.535156 835.050781 399.417969 C 835.144531 401.300781 835.191406 403.183594 835.191406 405.070312 Z M 835.191406 405.070312 " fill-opacity="1" fill-rule="nonzero"/></g><path fill="#ffffff" d="M 809.589844 405.070312 C 809.589844 406.535156 809.554688 408.003906 809.484375 409.464844 C 809.410156 410.929688 809.304688 412.394531 809.160156 413.851562 C 809.015625 415.3125 808.835938 416.765625 808.621094 418.21875 C 808.40625 419.667969 808.15625 421.113281 807.871094 422.550781 C 807.582031 423.988281 807.261719 425.417969 806.90625 426.839844 C 806.550781 428.261719 806.160156 429.675781 805.734375 431.078125 C 805.308594 432.480469 804.847656 433.875 804.355469 435.253906 C 803.859375 436.636719 803.332031 438.003906 802.773438 439.355469 C 802.210938 440.710938 801.617188 442.050781 800.988281 443.378906 C 800.363281 444.703125 799.703125 446.011719 799.011719 447.304688 C 798.320312 448.597656 797.597656 449.875 796.84375 451.132812 C 796.089844 452.390625 795.304688 453.628906 794.492188 454.847656 C 793.675781 456.066406 792.832031 457.265625 791.960938 458.441406 C 791.085938 459.621094 790.183594 460.777344 789.253906 461.910156 C 788.324219 463.042969 787.367188 464.152344 786.382812 465.238281 C 785.398438 466.324219 784.386719 467.386719 783.347656 468.425781 C 782.3125 469.460938 781.25 470.472656 780.164062 471.457031 C 779.078125 472.441406 777.96875 473.398438 776.835938 474.328125 C 775.699219 475.257812 774.546875 476.160156 773.367188 477.035156 C 772.191406 477.910156 770.992188 478.753906 769.773438 479.566406 C 768.554688 480.382812 767.316406 481.164062 766.058594 481.917969 C 764.800781 482.671875 763.523438 483.394531 762.230469 484.085938 C 760.9375 484.777344 759.628906 485.4375 758.300781 486.0625 C 756.976562 486.691406 755.636719 487.285156 754.28125 487.847656 C 752.925781 488.40625 751.558594 488.933594 750.179688 489.429688 C 748.796875 489.921875 747.40625 490.382812 746.003906 490.808594 C 744.601562 491.234375 743.1875 491.625 741.765625 491.980469 C 740.34375 492.335938 738.914062 492.660156 737.476562 492.945312 C 736.035156 493.230469 734.59375 493.480469 733.140625 493.695312 C 731.691406 493.910156 730.238281 494.089844 728.777344 494.234375 C 727.316406 494.378906 725.855469 494.488281 724.390625 494.558594 C 722.925781 494.628906 721.460938 494.667969 719.996094 494.667969 C 718.527344 494.667969 717.0625 494.628906 715.597656 494.558594 C 714.132812 494.488281 712.671875 494.378906 711.214844 494.234375 C 709.753906 494.089844 708.300781 493.910156 706.847656 493.695312 C 705.398438 493.480469 703.953125 493.230469 702.515625 492.945312 C 701.078125 492.660156 699.648438 492.335938 698.226562 491.980469 C 696.804688 491.625 695.390625 491.234375 693.988281 490.808594 C 692.582031 490.382812 691.191406 489.921875 689.8125 489.429688 C 688.429688 488.933594 687.0625 488.40625 685.707031 487.847656 C 684.355469 487.285156 683.011719 486.691406 681.6875 486.0625 C 680.363281 485.4375 679.054688 484.777344 677.761719 484.085938 C 676.464844 483.394531 675.191406 482.671875 673.933594 481.917969 C 672.675781 481.164062 671.4375 480.382812 670.21875 479.566406 C 669 478.753906 667.800781 477.910156 666.621094 477.035156 C 665.445312 476.160156 664.289062 475.257812 663.15625 474.328125 C 662.023438 473.398438 660.914062 472.441406 659.824219 471.457031 C 658.738281 470.472656 657.679688 469.460938 656.640625 468.425781 C 655.605469 467.386719 654.59375 466.324219 653.609375 465.238281 C 652.625 464.152344 651.667969 463.042969 650.738281 461.910156 C 649.804688 460.777344 648.902344 459.621094 648.03125 458.441406 C 647.15625 457.265625 646.3125 456.066406 645.5 454.847656 C 644.683594 453.628906 643.898438 452.390625 643.144531 451.132812 C 642.390625 449.875 641.667969 448.597656 640.976562 447.304688 C 640.289062 446.011719 639.628906 444.703125 639 443.378906 C 638.375 442.050781 637.78125 440.710938 637.21875 439.355469 C 636.65625 438.003906 636.128906 436.636719 635.636719 435.253906 C 635.140625 433.875 634.683594 432.480469 634.257812 431.078125 C 633.832031 429.675781 633.441406 428.261719 633.085938 426.839844 C 632.726562 425.417969 632.40625 423.988281 632.121094 422.550781 C 631.835938 421.113281 631.582031 419.667969 631.367188 418.21875 C 631.152344 416.765625 630.972656 415.3125 630.832031 413.851562 C 630.6875 412.394531 630.578125 410.929688 630.507812 409.464844 C 630.433594 408.003906 630.398438 406.535156 630.398438 405.070312 C 630.398438 403.605469 630.433594 402.136719 630.507812 400.675781 C 630.578125 399.210938 630.6875 397.746094 630.832031 396.289062 C 630.972656 394.828125 631.152344 393.375 631.367188 391.921875 C 631.582031 390.472656 631.835938 389.027344 632.121094 387.589844 C 632.40625 386.152344 632.726562 384.722656 633.085938 383.300781 C 633.441406 381.878906 633.832031 380.464844 634.257812 379.0625 C 634.683594 377.660156 635.140625 376.265625 635.636719 374.886719 C 636.128906 373.503906 636.65625 372.136719 637.21875 370.785156 C 637.78125 369.429688 638.375 368.089844 639 366.761719 C 639.628906 365.4375 640.289062 364.128906 640.976562 362.835938 C 641.667969 361.542969 642.390625 360.265625 643.144531 359.007812 C 643.898438 357.75 644.683594 356.511719 645.5 355.292969 C 646.3125 354.074219 647.15625 352.875 648.03125 351.699219 C 648.902344 350.519531 649.804688 349.363281 650.738281 348.230469 C 651.667969 347.097656 652.625 345.988281 653.609375 344.902344 C 654.59375 343.816406 655.605469 342.753906 656.640625 341.714844 C 657.679688 340.679688 658.738281 339.667969 659.824219 338.683594 C 660.914062 337.699219 662.023438 336.742188 663.15625 335.8125 C 664.289062 334.882812 665.445312 333.980469 666.621094 333.105469 C 667.800781 332.230469 669 331.386719 670.21875 330.574219 C 671.4375 329.757812 672.675781 328.976562 673.933594 328.222656 C 675.191406 327.46875 676.464844 326.746094 677.761719 326.054688 C 679.054688 325.363281 680.363281 324.703125 681.6875 324.074219 C 683.011719 323.449219 684.355469 322.855469 685.707031 322.292969 C 687.0625 321.734375 688.429688 321.207031 689.8125 320.710938 C 691.191406 320.21875 692.582031 319.757812 693.988281 319.332031 C 695.390625 318.90625 696.804688 318.515625 698.226562 318.160156 C 699.648438 317.804688 701.078125 317.480469 702.515625 317.195312 C 703.953125 316.910156 705.398438 316.660156 706.847656 316.445312 C 708.300781 316.230469 709.753906 316.050781 711.214844 315.90625 C 712.671875 315.761719 714.132812 315.652344 715.597656 315.582031 C 717.0625 315.511719 718.527344 315.472656 719.996094 315.472656 C 721.460938 315.472656 722.925781 315.511719 724.390625 315.582031 C 725.855469 315.652344 727.316406 315.761719 728.777344 315.90625 C 730.238281 316.050781 731.691406 316.230469 733.140625 316.445312 C 734.59375 316.660156 736.035156 316.910156 737.476562 317.195312 C 738.914062 317.480469 740.34375 317.804688 741.765625 318.160156 C 743.1875 318.515625 744.601562 318.90625 746.003906 319.332031 C 747.40625 319.757812 748.796875 320.21875 750.179688 320.710938 C 751.558594 321.207031 752.925781 321.734375 754.28125 322.292969 C 755.636719 322.855469 756.976562 323.449219 758.300781 324.074219 C 759.628906 324.703125 760.9375 325.363281 762.230469 326.054688 C 763.523438 326.746094 764.800781 327.46875 766.058594 328.222656 C 767.316406 328.976562 768.554688 329.757812 769.773438 330.574219 C 770.992188 331.386719 772.191406 332.230469 773.367188 333.105469 C 774.546875 333.980469 775.699219 334.882812 776.835938 335.8125 C 777.96875 336.742188 779.078125 337.699219 780.164062 338.683594 C 781.25 339.667969 782.3125 340.679688 783.347656 341.714844 C 784.386719 342.753906 785.398438 343.816406 786.382812 344.902344 C 787.367188 345.988281 788.324219 347.097656 789.253906 348.230469 C 790.183594 349.363281 791.085938 350.519531 791.960938 351.699219 C 792.832031 352.875 793.675781 354.074219 794.492188 355.292969 C 795.304688 356.511719 796.089844 357.75 796.84375 359.007812 C 797.597656 360.265625 798.320312 361.542969 799.011719 362.835938 C 799.703125 364.128906 800.363281 365.4375 800.988281 366.761719 C 801.617188 368.089844 802.210938 369.429688 802.773438 370.785156 C 803.332031 372.136719 803.859375 373.503906 804.355469 374.886719 C 804.847656 376.265625 805.308594 377.660156 805.734375 379.0625 C 806.160156 380.464844 806.550781 381.878906 806.90625 383.300781 C 807.261719 384.722656 807.582031 386.152344 807.871094 387.589844 C 808.15625 389.027344 808.40625 390.472656 808.621094 391.921875 C 808.835938 393.375 809.015625 394.828125 809.160156 396.289062 C 809.304688 397.746094 809.410156 399.210938 809.484375 400.675781 C 809.554688 402.136719 809.589844 403.605469 809.589844 405.070312 Z M 809.589844 405.070312 " fill-opacity="1" fill-rule="nonzero"/><path fill="#004aad" d="M 713.59375 405.070312 C 713.59375 408.609375 716.460938 411.46875 719.996094 411.46875 C 723.535156 411.46875 726.394531 408.609375 726.394531 405.070312 L 726.394531 334.671875 C 726.394531 331.140625 723.535156 328.273438 719.996094 328.273438 C 716.460938 328.273438 713.59375 331.140625 713.59375 334.671875 Z M 713.59375 405.070312 " fill-opacity="1" fill-rule="nonzero"/><path fill="#004aad" d="M 664.566406 373.070312 C 662.800781 376.136719 663.851562 380.046875 666.910156 381.8125 L 716.796875 410.613281 C 719.855469 412.378906 723.765625 411.328125 725.53125 408.269531 C 727.296875 405.210938 726.246094 401.292969 723.195312 399.527344 L 673.308594 370.730469 C 670.25 368.964844 666.332031 370.011719 664.566406 373.070312 Z M 664.566406 373.070312 " fill-opacity="1" fill-rule="nonzero"/></svg>